<?xml version="1.0" encoding="UTF-8" standalone="no"?>
<!-- Created with Inkscape (http://www.inkscape.org/) -->

<svg
   width="338.66669mm"
   height="135.65755mm"
   viewBox="0 0 338.66669 135.65755"
   version="1.1"
   id="svg1"
   inkscape:version="1.4 (86a8ad7, 2024-10-11)"
   sodipodi:docname="Clastr Agency.svg"
   inkscape:export-batch-path="D:\Cherish Official\Design Studio\CHERISH BRANDING\CHERISH BRANDING"
   inkscape:export-batch-name="Clastr pfp logo"
   xmlns:inkscape="http://www.inkscape.org/namespaces/inkscape"
   xmlns:sodipodi="http://sodipodi.sourceforge.net/DTD/sodipodi-0.dtd"
   xmlns="http://www.w3.org/2000/svg"
   xmlns:svg="http://www.w3.org/2000/svg">
  <sodipodi:namedview
     id="namedview1"
     pagecolor="#ababab"
     bordercolor="#000000"
     borderopacity="0.25"
     inkscape:showpageshadow="2"
     inkscape:pageopacity="0.0"
     inkscape:pagecheckerboard="0"
     inkscape:deskcolor="#d1d1d1"
     inkscape:document-units="mm"
     showguides="true"
     inkscape:zoom="0.0625"
     inkscape:cx="-1184"
     inkscape:cy="1784"
     inkscape:window-width="1920"
     inkscape:window-height="1057"
     inkscape:window-x="-8"
     inkscape:window-y="-8"
     inkscape:window-maximized="1"
     inkscape:current-layer="layer1">
    <inkscape:page
       x="-9.9525183e-38"
       y="0"
       width="338.66669"
       height="135.65755"
       id="page2"
       margin="0"
       bleed="0" />
  </sodipodi:namedview>
  <defs
     id="defs1" />
  <g
     inkscape:label="Layer 1"
     inkscape:groupmode="layer"
     id="layer1"
     transform="translate(-38.912796,-564.69054)">
    <path
       id="path3"
       style="font-size:50.567px;font-family:Impact;-inkscape-font-specification:Impact;letter-spacing:-1.6645px;word-spacing:3.92422px;fill:#ffffff;fill-opacity:1;stroke-width:6.34832;stroke-linecap:round;stroke-linejoin:round"
       d="m 68.49089,564.69053 c -5.501945,0 -10.382035,0.9442 -14.639014,2.83173 -4.216821,1.84737 -7.529183,4.3975 -9.938794,7.65047 -2.369451,3.25298 -3.795935,6.64678 -4.277857,10.18086 -0.481931,3.49393 -0.722429,8.75452 -0.722429,15.78256 v 30.10635 c 0,0 0.02415,10.72095 0.722429,15.78256 0.481922,3.53408 1.908406,6.92788 4.277857,10.18086 2.409611,3.25297 5.721973,5.80307 9.938794,7.65045 4.256979,1.88753 9.137069,2.83175 14.639014,2.83175 7.469793,0 13.633861,-1.44557 18.493243,-4.33712 4.859381,-2.89152 8.052121,-6.50673 9.578207,-10.84404 1.526086,-4.29715 2.289592,-11.00331 2.289592,-20.11967 v -9.27687 H 73.491176 v 16.98785 c 0,4.93969 -0.281223,8.01156 -0.843467,9.21637 -0.522082,1.24497 -1.706795,1.86723 -3.554163,1.86723 -2.08833,0 -3.414284,-0.74313 -3.976527,-2.22907 -0.562241,-1.48592 -0.843467,-4.69777 -0.843467,-9.63748 V 593.0633 c 0,-4.93971 0.281226,-8.15153 0.843467,-9.63745 0.562243,-1.48594 1.888197,-2.22907 3.976527,-2.22907 1.847368,0 3.032081,0.62226 3.554163,1.86723 0.562244,1.20481 0.843467,4.27666 0.843467,9.21635 v 16.98788 h 25.360756 v -9.2769 c 0,-9.11637 -0.763506,-15.8225 -2.289592,-20.11965 -1.526086,-4.33731 -4.718826,-7.95252 -9.578207,-10.84404 -4.859382,-2.89155 -11.02345,-4.33712 -18.493243,-4.33712 z m 165.34483,0 c -6.02402,0 -11.16497,0.98367 -15.42196,2.95152 -4.25697,1.92769 -7.34921,4.61906 -9.2769,8.07282 -1.88753,3.45377 -2.83046,8.91543 -2.83046,16.38521 0,5.18067 0.66172,9.43722 1.987,12.77051 1.36545,3.33329 3.07317,5.94449 5.12134,7.83202 2.04816,1.88753 6.22454,4.91868 12.5297,9.09533 6.30513,4.13652 10.26137,7.08872 11.86779,8.85577 1.56624,1.76706 2.34885,5.52224 2.34885,11.26514 0,2.61042 -0.4212,4.57773 -1.26456,5.90301 -0.8032,1.32529 -2.04897,1.98827 -3.73571,1.98827 -1.68674,0 -2.87144,-0.52174 -3.55417,-1.56589 -0.64256,-1.04418 -0.96324,-3.39324 -0.96324,-7.0478 v -11.86782 h -23.55405 v 6.38589 c 0,7.30915 0.74316,12.95149 2.22908,16.92735 1.48594,3.97585 4.61759,7.24876 9.39664,9.81901 4.81921,2.57026 10.62317,3.85551 17.41023,3.85551 6.18466,0 11.60559,-1.10456 16.26417,-3.31336 4.65858,-2.24896 7.79152,-5.0205 9.39791,-8.31363 1.64658,-3.29314 2.46988,-8.41373 2.46988,-15.36146 0,-9.55812 -1.46593,-16.48567 -4.39762,-20.78282 -2.9317,-4.29712 -10.03996,-9.7982 -21.32496,-16.50497 -3.9357,-2.32928 -6.32549,-4.31823 -7.16884,-5.96481 -0.88352,-1.64658 -1.32509,-4.09616 -1.32509,-7.34914 0,-2.53009 0.38175,-4.41721 1.14479,-5.66218 0.8032,-1.24497 1.96755,-1.86723 3.49363,-1.86723 1.40561,0 2.40962,0.4619 3.01203,1.3856 0.6024,0.92367 0.90398,3.0717 0.90398,6.44515 v 7.22937 h 23.55405 v -3.85551 c 0,-7.75091 -0.76351,-13.23289 -2.28959,-16.44571 -1.48594,-3.25297 -4.55779,-5.94434 -9.21636,-8.07282 -4.61842,-2.12849 -10.22129,-3.19233 -16.80756,-3.19233 z m -76.40504,2.02736 -12.8903,97.52826 h 26.26474 l 1.50538,-17.52999 h 9.09659 l 1.26457,17.52999 h 25.96341 L 194.1171,566.71789 Z m -53.54316,0.0203 v 87.57813 l -0.0353,0.01 v 2.81031 c 0,5.57425 -0.0505,9.16389 -0.15256,10.76965 -0.10203,1.58283 -0.5715,3.01719 -1.4083,4.30181 -0.81639,1.28461 -1.93889,2.17828 -3.367567,2.68294 -1.40827,0.48171 -3.541142,0.72245 -6.398501,0.72245 l -19.024035,0.23568 -0.01903,24.47064 c 0,0 16.088607,0.0725 19.221977,-0.0146 7.925026,-0.22397 24.521686,1.20193 31.425146,-6.20307 11.46027,-12.29291 4.50145,-26.88063 17.55522,-29.83278 l 2.66278,-19.517 h -15.0992 v -78.01172 z m 153.1568,10e-4 c 0,0 3.92847,1.89268 6.63552,8.49898 2.44336,5.96278 2.36902,11.01802 2.36902,11.01802 h 12.76168 v 78.01129 h 25.36077 v -78.01132 h 15.06012 v -19.517 z m 63.90935,0 v 97.52829 h 25.36074 V 620.2924 c 3.49393,0 5.64323,0.62227 6.44642,1.86723 0.84336,1.24497 1.26456,4.47843 1.26456,9.69925 v 32.40857 h 23.55407 v -25.72261 c 0,-7.87139 -0.22128,-12.67004 -0.66318,-14.39694 -0.40161,-1.76705 -1.46542,-3.69491 -3.19232,-5.78324 -1.7269,-2.08832 -5.10035,-3.75532 -10.12035,-5.00029 5.54209,-0.52209 9.25657,-2.08854 11.1441,-4.69896 1.88754,-2.61041 2.83175,-7.71066 2.83175,-15.30092 0,-8.31316 -1.34507,-14.35634 -4.0358,-18.1314 -2.65057,-3.8152 -6.10417,-6.18461 -10.36116,-7.10831 -4.21683,-0.92367 -12.31,-1.38562 -24.27773,-1.38562 z m 25.36074,16.68654 c 2.93171,0 4.93974,0.48103 6.02405,1.44486 1.12449,0.96383 1.68693,2.99221 1.68693,6.08456 v 5.36213 c 0,4.29715 -0.58279,6.84728 -1.74744,7.65047 -1.12446,0.76304 -3.11215,1.14353 -5.96354,1.14353 z m -169.84204,0.556 5.05828,17.01436 11.10628,2.55434 -7.94802,13.44379 2.0034,18.76053 -9.97031,-8.70575 -9.86693,9.03861 1.78528,-18.82357 -8.10183,-13.174 11.07351,-2.92754 z"
       sodipodi:nodetypes="scccsccccsscsccscsssssscsccscsssccscsccscscsccsscsccssccscsssccsccsccccccccccccscccccccsccccccscccccccccccccsccscscssccscccsscccccccccccccc" />
  </g>
</svg>
