<?xml version="1.0" encoding="UTF-8" standalone="no"?>
<!-- Created with Inkscape (http://www.inkscape.org/) -->

<svg
   width="45.89196mm"
   height="163.01997mm"
   viewBox="0 0 45.89196 163.01997"
   version="1.1"
   id="svg1"
   inkscape:version="1.4.2 (f4327f4, 2025-05-13)"
   sodipodi:docname="sword.svg"
   xmlns:inkscape="http://www.inkscape.org/namespaces/inkscape"
   xmlns:sodipodi="http://sodipodi.sourceforge.net/DTD/sodipodi-0.dtd"
   xmlns="http://www.w3.org/2000/svg"
   xmlns:svg="http://www.w3.org/2000/svg">
  <sodipodi:namedview
     id="namedview1"
     pagecolor="#ffffff"
     bordercolor="#000000"
     borderopacity="0.25"
     inkscape:showpageshadow="2"
     inkscape:pageopacity="0.0"
     inkscape:pagecheckerboard="0"
     inkscape:deskcolor="#d1d1d1"
     inkscape:document-units="mm"
     inkscape:zoom="0.56480079"
     inkscape:cx="221.31697"
     inkscape:cy="-38.951787"
     inkscape:window-width="1440"
     inkscape:window-height="878"
     inkscape:window-x="-6"
     inkscape:window-y="-6"
     inkscape:window-maximized="1"
     inkscape:current-layer="layer1" />
  <defs
     id="defs1" />
  <g
     inkscape:label="Layer 1"
     inkscape:groupmode="layer"
     id="layer1"
     transform="translate(-46.151005,-19.423633)">
    <path
       id="path1"
       style="stroke-width:2.21994;stroke-linecap:round;stroke-linejoin:round"
       d="m 69.097074,19.423633 a 0.71008144,4.8746761 0 0 0 -0.635103,2.695442 L 62.8804,98.755236 a 0.71008144,4.8746761 0 0 0 0,4.357884 l 1.92288,26.40268 -0.609266,3.34452 -17.284216,5.26999 a 1.3722753,0.83681336 0 0 0 0,1.49707 l 15.206824,4.63641 -0.03462,0.19016 a 0.80129693,2.1992882 0 0 0 0,1.96629 l 6.29884,34.57567 a 0.80129693,2.1992882 0 0 0 0.448551,1.08779 0.71008144,4.8746761 0 0 0 0.535368,5.2e-4 0.80129693,2.1992882 0 0 0 0.449069,-1.08831 l 6.298837,-34.57567 a 0.80129693,2.1992882 0 0 0 0,-1.96629 l -0.03462,-0.19016 15.206307,-4.63641 a 1.3722753,0.83681336 0 0 0 0.75861,-0.7488 1.3722753,0.83681336 0 0 0 -0.75861,-0.74827 l -17.2837,-5.26999 -0.609782,-3.34659 1.92288,-26.40061 a 0.71008144,4.8746761 0 0 0 0,-4.357884 L 69.732181,22.119075 a 0.71008144,4.8746761 0 0 0 -0.635104,-2.695442 z m 0,15.771651 4.787822,65.738636 -1.628325,22.3538 -1.04128,-5.71596 1.211812,-16.63836 -3.330029,-45.725377 -3.330546,45.725377 1.212329,16.64146 -1.041796,5.71648 -1.628325,-22.35742 z m 1.606621,89.402436 1.04128,5.71648 -0.132292,1.81799 -1.25057,-0.38137 -0.128157,-0.70281 z m -3.213241,5.2e-4 0.469739,6.44977 -0.128158,0.70281 -1.250569,0.38137 -0.132809,-1.81799 z m -0.01912,9.13334 -0.331246,1.81903 -0.302824,0.092 -0.122473,-1.68001 z m 3.25148,0 0.756544,0.231 -0.122474,1.68001 -0.302822,-0.092 z m -6.889501,1.1095 -0.331246,1.81851 -7.277075,2.21899 6.51123,1.98542 -0.296622,1.62728 -11.847856,-3.6127 z m 10.52804,0 13.241568,4.0375 -11.847855,3.6127 -0.296623,-1.6278 6.510714,-1.9849 -7.276558,-2.21847 z m -9.928593,6.54019 1.262972,0.385 0.08888,1.22265 -0.08992,0.49455 -1.558561,-0.4749 z m 9.328112,0 0.296624,1.6273 -1.558045,0.47542 -0.08992,-0.49351 0.0894,-1.22421 z m -9.947713,3.3998 1.558561,0.47542 -0.03307,0.18035 1.040247,5.70869 1.09554,15.04198 -3.780647,-20.75015 z m 10.567313,5.1e-4 0.119373,0.65578 -3.779614,20.7486 1.09554,-15.04404 1.039214,-5.70508 -0.03307,-0.18035 z m -5.356778,20.88348 0.07338,0.40153 0.07338,-0.40153 -0.07338,1.00459 z" />
  </g>
</svg>
